<?xml version="1.0" encoding="utf-8"?>
<!-- Generator: Adobe Illustrator 21.0.0, SVG Export Plug-In . SVG Version: 6.00 Build 0)  -->
<svg version="1.1" id="Layer_1" xmlns="http://www.w3.org/2000/svg" xmlns:xlink="http://www.w3.org/1999/xlink" x="0px" y="0px"
	 viewBox="0 0 113.2 20.9" style="enable-background:new 0 0 113.2 20.9;" xml:space="preserve">
<style type="text/css">
	.st0{fill:#DDAD7B;}
	.st1{fill:#DE5936;}
	.st2{fill:#333030;}
</style>
<g>
	<path class="st0" d="M9.4,7.9C9.4,7.9,9.4,7.9,9.4,7.9C8.6,8.1,7.9,8.4,7.1,8.7C6.8,8.9,6.6,8.4,6.9,8.3c0.6-0.3,1.3-0.5,2-0.8
		C7.8,7,6.7,6.4,5.7,5.9c-0.3-0.1,0-0.6,0.2-0.4c0.6,0.3,1.2,0.6,1.8,0.9C7.6,6,7.5,5.6,7.4,5.2C7.4,4.9,7.9,4.7,7.9,5.1
		C8,5.5,8.1,6,8.2,6.4c0,0.1,0,0.1,0,0.2c1.8,0.9,3.7,1.9,5.5,2.9V4.3c0-0.4-0.3-0.7-0.6-0.8L1.8,1.1C1.3,1,0.9,1.4,0.9,1.9v15
		c0,0.4,0.3,0.7,0.6,0.8l9.5,2.1c1.4,0.3,2.6-0.8,2.6-2.3v-2c0,0-0.1,0-0.1,0c-1.7-0.6-3.3-1.1-5-1.6c0,0-0.1,0.1-0.1,0.1
		c-0.5,0.2-1.1,0.6-1.6,0.8c-0.3,0.2-0.5-0.3-0.2-0.4c0.4-0.2,0.9-0.5,1.3-0.7c-0.9-0.3-1.8-0.5-2.7-0.8c-0.3-0.1-0.2-0.6,0.1-0.5
		c1.5,0.4,3,0.9,4.5,1.3c-0.3-0.6-0.5-1.2-0.7-1.8c-0.1-0.3,0.4-0.4,0.5-0.1c0.3,0.7,0.5,1.4,0.9,2.1c1.1,0.3,2.1,0.7,3.2,1v-4.9
		C12.3,9.3,10.9,8.6,9.4,7.9z M9.8,4.6C9.4,4.7,9,4.9,8.7,5.2l0-0.1c0.1-0.7,0.8-1.2,1.5-1l0.4,0.1l-0.1,0.4c-0.1,0.7-0.8,1.2-1.5,1
		L8.6,5.5c0.3-0.3,0.6-0.6,1.1-0.7C9.8,4.8,10,4.5,9.8,4.6z M4.8,3L5,2.6l0.3,0.2C5.9,3.3,6,4.1,5.6,4.7L5.4,5
		C5.2,4.6,5.1,4.2,5.2,3.7c0-0.1-0.1-0.5-0.2-0.3C4.9,4,5,4.4,5.2,4.9L5.1,4.8C4.5,4.4,4.4,3.6,4.8,3z M3.1,6.7
		C3.4,6,4.1,5.8,4.8,6.1l0.1,0C4.4,6.2,4,6.4,3.6,6.7c-0.2,0.1,0.2,0.1,0.3,0c0.3-0.3,0.8-0.4,1.2-0.4L4.9,6.6
		C4.6,7.3,3.8,7.5,3.2,7.2L2.9,7L3.1,6.7z M3.8,12.6c-0.7,0.2-1.3-0.3-1.5-1l-0.1-0.4l0.4-0.1c0.7-0.2,1.3,0.3,1.5,1l0,0.1
		c-0.3-0.3-0.7-0.6-1.2-0.7c-0.2,0,0.1,0.3,0.2,0.3c0.4,0.1,0.8,0.4,1.1,0.7L3.8,12.6z M5.8,15.5L5.8,15.5c-0.3,0.2-0.7,0.4-1,0.8
		c-0.1,0.2,0.2,0.1,0.3,0c0.3-0.4,0.7-0.6,1.1-0.7L6.1,16c-0.2,0.7-0.9,1.1-1.6,0.9l-0.4-0.1l0.1-0.4C4.5,15.7,5.2,15.3,5.8,15.5z
		 M4.7,10.2l-0.4-0.1l0.1-0.4C4.6,9,5.3,8.6,6,8.8l0.1,0C5.6,9,5.2,9.2,5,9.6c-0.1,0.2,0.2,0.1,0.3,0C5.5,9.2,5.9,9,6.3,8.9L6.2,9.3
		C6.1,10,5.4,10.4,4.7,10.2z M8.1,10.9c-0.1,0.7-0.8,1.2-1.5,1l-0.4-0.1c0.3-0.3,0.6-0.6,1.1-0.7c0.1,0,0.4-0.3,0.2-0.3
		C7,11,6.6,11.2,6.3,11.5l0-0.1c0.1-0.7,0.8-1.2,1.5-1l0.4,0.1L8.1,10.9z M10.7,11.9l-0.4-0.1c0.3-0.3,0.6-0.6,1.1-0.7
		c0.1,0,0.4-0.3,0.2-0.3c-0.5,0.1-0.9,0.3-1.2,0.7l0-0.1c0.1-0.7,0.8-1.2,1.5-1l0.4,0.1l-0.1,0.4C12.1,11.6,11.4,12,10.7,11.9z"/>
	<path class="st1" d="M15.4,10.1v4.9c1.1-0.4,2.1-0.7,3.2-1c0.3-0.7,0.6-1.4,0.9-2.1c0.1-0.3,0.6-0.2,0.5,0.1
		c-0.2,0.6-0.5,1.2-0.7,1.8c1.5-0.4,3-0.9,4.5-1.3c0.3-0.1,0.4,0.4,0.1,0.5c-0.9,0.3-1.8,0.5-2.7,0.8c0.4,0.2,0.9,0.5,1.3,0.7
		c0.3,0.2,0,0.6-0.2,0.4c-0.5-0.3-1-0.6-1.6-0.8c-0.1,0-0.1-0.1-0.1-0.1c-1.7,0.5-3.4,1-5,1.6c0,0-0.1,0-0.1,0v2
		c0,1.5,1.3,2.6,2.6,2.3l9.5-2.1c0.4-0.1,0.6-0.4,0.6-0.8v-15c0-0.5-0.5-0.9-0.9-0.8L16,3.5c-0.4,0.1-0.6,0.4-0.6,0.8v5.2
		c1.8-1,3.7-1.9,5.5-2.9c0-0.1,0-0.1,0-0.2C21,6,21.1,5.5,21.1,5.1c0.1-0.3,0.5-0.2,0.5,0.1c-0.1,0.4-0.1,0.8-0.2,1.2
		c0.6-0.3,1.2-0.6,1.8-0.9c0.3-0.1,0.5,0.3,0.2,0.4c-1.1,0.5-2.1,1.1-3.2,1.6c0.7,0.2,1.3,0.5,2,0.8c0.3,0.1,0,0.6-0.2,0.4
		c-0.7-0.3-1.5-0.6-2.3-0.8c0,0-0.1,0-0.1,0C18.2,8.6,16.8,9.3,15.4,10.1z M19.4,4.8c0.4,0.1,0.8,0.4,1.1,0.7l-0.4,0.1
		c-0.7,0.2-1.3-0.3-1.5-1l-0.1-0.4l0.4-0.1c0.7-0.2,1.3,0.3,1.5,1l0,0.1c-0.3-0.3-0.7-0.6-1.2-0.7C19,4.5,19.3,4.8,19.4,4.8z
		 M24,4.8L24,4.8C24,4.4,24.1,4,24,3.5c-0.1-0.2-0.2,0.2-0.2,0.3c0.1,0.5,0,0.9-0.2,1.3l-0.2-0.3c-0.4-0.6-0.3-1.4,0.3-1.9l0.3-0.2
		L24.3,3C24.7,3.6,24.5,4.4,24,4.8z M26.2,7l-0.3,0.2c-0.6,0.3-1.4,0.1-1.7-0.6L24,6.3c0.4,0,0.8,0.1,1.2,0.4c0.1,0.1,0.5,0.1,0.3,0
		c-0.4-0.3-0.8-0.5-1.2-0.5l0.1,0C24.9,5.8,25.7,6,26,6.7L26.2,7z M24.9,12.5c0.3-0.3,0.6-0.6,1.1-0.7c0.1,0,0.4-0.3,0.2-0.3
		c-0.5,0.1-0.9,0.3-1.2,0.7l0-0.1c0.1-0.7,0.8-1.2,1.5-1l0.4,0.1l-0.1,0.4c-0.1,0.7-0.8,1.2-1.5,1L24.9,12.5z M24.8,16.4l0.1,0.4
		l-0.4,0.1c-0.7,0.2-1.4-0.2-1.6-0.9l-0.1-0.4c0.4,0.1,0.8,0.3,1.1,0.7c0.1,0.1,0.4,0.2,0.3,0c-0.3-0.4-0.7-0.6-1.1-0.8l0.1,0
		C23.9,15.3,24.6,15.7,24.8,16.4z M22.8,9.3l-0.1-0.4c0.4,0.1,0.8,0.3,1.1,0.7c0.1,0.1,0.4,0.2,0.3,0C23.8,9.2,23.4,9,23,8.8l0.1,0
		c0.7-0.2,1.4,0.2,1.6,0.9l0.1,0.4l-0.4,0.1C23.7,10.4,23,10,22.8,9.3z M20.9,10.5l0.4-0.1c0.7-0.2,1.3,0.3,1.5,1l0,0.1
		c-0.3-0.3-0.7-0.6-1.2-0.7c-0.2,0,0.1,0.3,0.2,0.3c0.4,0.1,0.8,0.4,1.1,0.7l-0.4,0.1c-0.7,0.2-1.3-0.3-1.5-1L20.9,10.5z M16.8,10.9
		l-0.1-0.4l0.4-0.1c0.7-0.2,1.3,0.3,1.5,1l0,0.1c-0.3-0.3-0.7-0.6-1.2-0.7c-0.2,0,0.1,0.3,0.2,0.3c0.4,0.1,0.8,0.4,1.1,0.7l-0.4,0.1
		C17.6,12,17,11.6,16.8,10.9z"/>
</g>
<g>
	<path class="st1" d="M37.5,4.6c-0.2-0.1-0.4-0.3-0.6-0.5c-0.2-0.2-0.3-0.4-0.4-0.6c-0.1,0.2-0.2,0.4-0.4,0.7
		c-0.2,0.2-0.4,0.4-0.6,0.5l-0.3-0.2c0.3-0.2,0.6-0.4,0.8-0.7c0.2-0.3,0.3-0.6,0.3-1V2.6h-1V2.3h2.3v0.3h-1v0.2
		c0,0.3,0.1,0.6,0.3,0.9c0.2,0.3,0.5,0.5,0.8,0.7L37.5,4.6z M36,6.4V5h0.3v1.2h2.5v0.3H36z M38.4,5.3V3.5h-1V3.2h1V2.1h0.3v3.2H38.4
		z"/>
	<path class="st1" d="M42.1,4.8v1.8h-0.4V4.8h-1.9V4.5H44v0.3H42.1z M43.6,3.9c-0.4,0-0.7-0.2-1-0.4C42.3,3.4,42,3.2,41.9,3
		c-0.1,0.2-0.3,0.4-0.7,0.6c-0.3,0.2-0.7,0.3-1,0.4L40,3.7c0.4,0,0.8-0.2,1.1-0.4s0.5-0.5,0.6-0.7h-1.4V2.3h3.2v0.3h-1.4
		c0.1,0.3,0.2,0.5,0.6,0.7c0.3,0.2,0.7,0.3,1.1,0.4L43.6,3.9z"/>
</g>
<g>
	<path class="st2" d="M35.2,10.5V9.9h2.2V8.8h0.7v1.1h2.2v0.6H35.2z M37.7,14.2c-0.6,0-1.1-0.2-1.5-0.5c-0.4-0.3-0.6-0.7-0.6-1.1
		c0-0.4,0.2-0.8,0.6-1.1c0.4-0.3,0.9-0.5,1.5-0.5c0.6,0,1.2,0.2,1.5,0.5c0.4,0.3,0.6,0.7,0.6,1.1c0,0.4-0.2,0.8-0.6,1.1
		C38.9,14,38.4,14.2,37.7,14.2z M37.7,11.5c-0.4,0-0.8,0.1-1.1,0.3c-0.3,0.2-0.4,0.4-0.4,0.7c0,0.3,0.1,0.6,0.4,0.8
		c0.3,0.2,0.6,0.3,1.1,0.3c0.4,0,0.8-0.1,1.1-0.3s0.4-0.4,0.4-0.8c0-0.3-0.1-0.6-0.4-0.7C38.5,11.6,38.2,11.5,37.7,11.5z M36.6,17.1
		v-2.4h0.6v1.8h4.8v0.6H36.6z M41.8,12.7v2.4h-0.7V8.8h0.7v3.3h1.3v0.6H41.8z"/>
	<path class="st2" d="M48.9,15.2c-0.5-0.4-1-0.9-1.3-1.4c-0.4-0.5-0.6-1-0.7-1.4c-0.1,0.4-0.4,0.9-0.8,1.5c-0.4,0.5-0.8,1-1.3,1.4
		l-0.5-0.5c0.7-0.5,1.2-1.1,1.6-1.8s0.6-1.5,0.6-2.2v-0.7h-1.9V9.5h4.5v0.6h-1.9v0.7c0,0.8,0.2,1.5,0.6,2.2c0.4,0.7,0.9,1.3,1.6,1.7
		L48.9,15.2z M50.5,17.3V8.8h0.7v8.5H50.5z"/>
	<path class="st2" d="M56.9,15.4v-1.8h-3.7v-0.6h7.9v0.6h-3.6v1.8H56.9z M54.4,17v-2.5h0.7v2H60V17H54.4z M54.5,12.1v-3h5.2v3H54.5z
		 M59.1,9.7h-3.9v1.9h3.9V9.7z"/>
	<path class="st2" d="M65.3,14v1.2c1,0,1.9,0,2.6-0.1l0,0.6c-1.6,0.1-3.5,0.1-5.8,0.1l-0.1-0.6c0.8,0,1.6,0,2.6,0V14
		c-0.6-0.1-1-0.2-1.3-0.5c-0.3-0.3-0.5-0.6-0.5-1c0-0.5,0.2-0.8,0.6-1.1c0.4-0.3,0.9-0.4,1.6-0.4c0.7,0,1.2,0.1,1.6,0.4
		c0.4,0.3,0.6,0.7,0.6,1.1c0,0.4-0.2,0.8-0.5,1.1C66.3,13.8,65.9,14,65.3,14z M64.7,8.8h0.6v1.1h2.2v0.6h-5.1V9.9h2.2V8.8z M65,11.5
		c-0.5,0-0.8,0.1-1.1,0.3c-0.3,0.2-0.4,0.4-0.4,0.7c0,0.3,0.1,0.5,0.4,0.7c0.3,0.2,0.6,0.3,1.1,0.3c0.5,0,0.8-0.1,1.1-0.3
		c0.3-0.2,0.4-0.4,0.4-0.7c0-0.3-0.1-0.5-0.4-0.7C65.8,11.6,65.4,11.5,65,11.5z M69,13.2v4.1h-0.7V8.8H69v3.8h1.3v0.6H69z"/>
	<path class="st2" d="M77.2,17.3V15h-4.8v-0.6h2.5v-1h-3.6v-0.6h7.9v0.6h-3.6v1h2.3v2.9H77.2z M78.4,12.1c-0.6-0.1-1.3-0.3-1.9-0.6
		c-0.6-0.3-1.1-0.6-1.3-0.9c-0.2,0.3-0.6,0.6-1.3,0.9c-0.6,0.3-1.3,0.5-1.9,0.5l-0.4-0.6c0.6,0,1.3-0.1,1.9-0.4
		c0.6-0.3,1.1-0.6,1.2-1h-2.6V9.5h2.7V8.7h0.7v0.8h2.7v0.6h-2.6c0.2,0.4,0.6,0.7,1.2,1c0.6,0.3,1.3,0.4,1.9,0.4L78.4,12.1z"/>
	<path class="st2" d="M84.1,15.3c-0.8-0.7-1.3-1.6-1.6-2.7c-0.1,0.4-0.3,0.9-0.6,1.4c-0.3,0.5-0.7,1-1.1,1.3L80.3,15
		c0.5-0.4,0.9-0.9,1.3-1.7c0.4-0.8,0.6-1.5,0.6-2.2v-1h-1.6V9.5h3.8v0.6h-1.6v1c0,0.7,0.2,1.4,0.5,2.1c0.3,0.7,0.8,1.3,1.2,1.7
		L84.1,15.3z M85.3,17v-4.7h-1.5v-0.6h1.5V8.9h0.6V17H85.3z M86.8,17.3V8.8h0.7v8.5H86.8z"/>
</g>
</svg>
